<svg width="116" height="33" viewBox="0 0 116 33" fill="none" xmlns="http://www.w3.org/2000/svg">
<circle cx="15.5" cy="15.5" r="13.5" stroke="#653819" stroke-width="3"/>
<path d="M8.736 19.5C8.648 19.5 8.576 19.472 8.52 19.416C8.464 19.36 8.436 19.292 8.436 19.212V11.4C8.436 11.312 8.464 11.24 8.52 11.184C8.576 11.128 8.648 11.1 8.736 11.1H9.684C9.796 11.1 9.88 11.132 9.936 11.196C9.992 11.252 10.028 11.296 10.044 11.328L12.36 15.648L14.7 11.328C14.716 11.296 14.752 11.252 14.808 11.196C14.864 11.132 14.948 11.1 15.06 11.1H15.996C16.084 11.1 16.156 11.128 16.212 11.184C16.268 11.24 16.296 11.312 16.296 11.4V19.212C16.296 19.292 16.268 19.36 16.212 19.416C16.156 19.472 16.084 19.5 15.996 19.5H14.988C14.9 19.5 14.828 19.472 14.772 19.416C14.724 19.36 14.7 19.292 14.7 19.212V14.016L13.02 17.22C12.98 17.292 12.928 17.356 12.864 17.412C12.8 17.46 12.716 17.484 12.612 17.484H12.12C12.008 17.484 11.92 17.46 11.856 17.412C11.8 17.356 11.752 17.292 11.712 17.22L10.032 14.016V19.212C10.032 19.292 10.004 19.36 9.948 19.416C9.892 19.472 9.824 19.5 9.744 19.5H8.736ZM19.1826 19.62C18.4386 19.62 17.8066 19.492 17.2866 19.236C16.7746 18.972 16.3826 18.6 16.1106 18.12C15.8386 17.632 15.6866 17.048 15.6546 16.368C15.6466 16.04 15.6426 15.688 15.6426 15.312C15.6426 14.936 15.6466 14.576 15.6546 14.232C15.6866 13.56 15.8386 12.98 16.1106 12.492C16.3906 12.004 16.7866 11.632 17.2986 11.376C17.8186 11.112 18.4466 10.98 19.1826 10.98C19.7266 10.98 20.2146 11.052 20.6466 11.196C21.0786 11.34 21.4466 11.54 21.7506 11.796C22.0546 12.044 22.2906 12.336 22.4586 12.672C22.6266 13.008 22.7146 13.372 22.7226 13.764C22.7306 13.836 22.7066 13.896 22.6506 13.944C22.6026 13.992 22.5426 14.016 22.4706 14.016H21.3306C21.2426 14.016 21.1706 13.996 21.1146 13.956C21.0586 13.908 21.0186 13.832 20.9946 13.728C20.8666 13.2 20.6466 12.84 20.3346 12.648C20.0226 12.456 19.6346 12.36 19.1706 12.36C18.6346 12.36 18.2066 12.512 17.8866 12.816C17.5666 13.112 17.3946 13.604 17.3706 14.292C17.3466 14.948 17.3466 15.62 17.3706 16.308C17.3946 16.996 17.5666 17.492 17.8866 17.796C18.2066 18.092 18.6346 18.24 19.1706 18.24C19.6346 18.24 20.0226 18.144 20.3346 17.952C20.6466 17.752 20.8666 17.392 20.9946 16.872C21.0186 16.76 21.0586 16.684 21.1146 16.644C21.1706 16.604 21.2426 16.584 21.3306 16.584H22.4706C22.5426 16.584 22.6026 16.608 22.6506 16.656C22.7066 16.704 22.7306 16.764 22.7226 16.836C22.7146 17.228 22.6266 17.592 22.4586 17.928C22.2906 18.264 22.0546 18.56 21.7506 18.816C21.4466 19.064 21.0786 19.26 20.6466 19.404C20.2146 19.548 19.7266 19.62 19.1826 19.62Z" fill="#2C2D2E"/>
<path d="M38.626 12.5V4.04H40.174L43.03 9.236L45.874 4.04H47.398V12.5H45.706V7.34L43.522 11.228H42.478L40.306 7.376V12.5H38.626ZM49.1137 12.5V4.04H50.9737V12.5H49.1137ZM52.6645 12.5V4.04H54.0445L58.2685 9.428V4.04H59.9965V12.5H58.6285L54.3925 7.1V12.5H52.6645ZM65.8877 12.632C64.9357 12.632 64.1277 12.452 63.4637 12.092C62.8077 11.732 62.3077 11.228 61.9637 10.58C61.6197 9.932 61.4477 9.172 61.4477 8.3C61.4477 7.404 61.6237 6.628 61.9757 5.972C62.3357 5.316 62.8517 4.808 63.5237 4.448C64.1957 4.088 65.0037 3.908 65.9477 3.908C66.5397 3.908 67.0997 3.992 67.6277 4.16C68.1637 4.328 68.5997 4.552 68.9357 4.832L68.3357 6.284C67.9677 6.012 67.5917 5.82 67.2077 5.708C66.8237 5.588 66.4077 5.528 65.9597 5.528C65.1037 5.528 64.4597 5.768 64.0277 6.248C63.6037 6.72 63.3917 7.404 63.3917 8.3C63.3917 9.204 63.6077 9.888 64.0397 10.352C64.4797 10.816 65.1277 11.048 65.9837 11.048C66.4397 11.048 66.9197 10.976 67.4237 10.832V9.176H65.5997V7.832H68.9597V11.984C68.5437 12.192 68.0637 12.352 67.5197 12.464C66.9757 12.576 66.4317 12.632 65.8877 12.632ZM70.6059 12.5V4.04H74.4819C75.3859 4.04 76.0819 4.236 76.5699 4.628C77.0659 5.02 77.3139 5.556 77.3139 6.236C77.3139 6.684 77.2019 7.072 76.9779 7.4C76.7539 7.72 76.4419 7.96 76.0419 8.12C76.5219 8.256 76.8899 8.496 77.1459 8.84C77.4099 9.184 77.5419 9.608 77.5419 10.112C77.5419 10.864 77.2779 11.452 76.7499 11.876C76.2299 12.292 75.5179 12.5 74.6139 12.5H70.6059ZM72.3819 7.52H74.1579C75.0699 7.52 75.5259 7.168 75.5259 6.464C75.5259 5.768 75.0699 5.42 74.1579 5.42H72.3819V7.52ZM72.3819 11.12H74.3619C74.8419 11.12 75.1939 11.028 75.4179 10.844C75.6419 10.66 75.7539 10.38 75.7539 10.004C75.7539 9.636 75.6419 9.36 75.4179 9.176C75.1939 8.992 74.8419 8.9 74.3619 8.9H72.3819V11.12ZM82.8737 12.632C82.0417 12.632 81.3097 12.452 80.6777 12.092C80.0537 11.724 79.5657 11.216 79.2137 10.568C78.8697 9.912 78.6977 9.144 78.6977 8.264C78.6977 7.384 78.8697 6.62 79.2137 5.972C79.5657 5.316 80.0537 4.808 80.6777 4.448C81.3017 4.088 82.0337 3.908 82.8737 3.908C83.7137 3.908 84.4457 4.088 85.0697 4.448C85.7017 4.808 86.1897 5.316 86.5337 5.972C86.8857 6.62 87.0617 7.38 87.0617 8.252C87.0617 9.132 86.8857 9.9 86.5337 10.556C86.1897 11.212 85.7017 11.724 85.0697 12.092C84.4457 12.452 83.7137 12.632 82.8737 12.632ZM82.8737 11.048C83.5777 11.048 84.1257 10.804 84.5177 10.316C84.9177 9.82 85.1177 9.136 85.1177 8.264C85.1177 7.384 84.9217 6.704 84.5297 6.224C84.1377 5.736 83.5857 5.492 82.8737 5.492C82.1777 5.492 81.6297 5.736 81.2297 6.224C80.8377 6.704 80.6417 7.384 80.6417 8.264C80.6417 9.136 80.8377 9.82 81.2297 10.316C81.6297 10.804 82.1777 11.048 82.8737 11.048ZM91.5244 12.632C90.8604 12.632 90.2324 12.548 89.6404 12.38C89.0564 12.212 88.5684 11.984 88.1764 11.696L88.7164 10.232C89.0924 10.496 89.5204 10.704 90.0004 10.856C90.4884 11.008 90.9964 11.084 91.5244 11.084C92.1004 11.084 92.5124 10.996 92.7604 10.82C93.0164 10.636 93.1444 10.408 93.1444 10.136C93.1444 9.904 93.0564 9.72 92.8804 9.584C92.7044 9.448 92.3964 9.332 91.9564 9.236L90.6004 8.948C89.0884 8.628 88.3324 7.844 88.3324 6.596C88.3324 6.06 88.4764 5.592 88.7644 5.192C89.0524 4.784 89.4524 4.468 89.9644 4.244C90.4844 4.02 91.0844 3.908 91.7644 3.908C92.3484 3.908 92.8964 3.992 93.4084 4.16C93.9204 4.328 94.3444 4.564 94.6804 4.868L94.1404 6.236C93.4844 5.716 92.6884 5.456 91.7524 5.456C91.2484 5.456 90.8564 5.556 90.5764 5.756C90.3044 5.948 90.1684 6.2 90.1684 6.512C90.1684 6.744 90.2524 6.932 90.4204 7.076C90.5884 7.22 90.8804 7.336 91.2964 7.424L92.6524 7.712C94.2044 8.048 94.9804 8.808 94.9804 9.992C94.9804 10.52 94.8364 10.984 94.5484 11.384C94.2684 11.776 93.8684 12.084 93.3484 12.308C92.8364 12.524 92.2284 12.632 91.5244 12.632ZM96.1879 12.5V4.04H98.0479V7.436H101.984V4.04H103.844V12.5H101.984V8.984H98.0479V12.5H96.1879ZM105.551 12.5V4.04H107.411V12.5H105.551ZM48.3273 28.632C47.4153 28.632 46.6353 28.452 45.9873 28.092C45.3393 27.732 44.8393 27.228 44.4873 26.58C44.1433 25.924 43.9713 25.152 43.9713 24.264C43.9713 23.384 44.1433 22.62 44.4873 21.972C44.8393 21.316 45.3393 20.808 45.9873 20.448C46.6353 20.088 47.4153 19.908 48.3273 19.908C48.8873 19.908 49.4233 19.996 49.9353 20.172C50.4473 20.348 50.8673 20.588 51.1953 20.892L50.6193 22.368C50.2593 22.088 49.8953 21.884 49.5273 21.756C49.1673 21.62 48.7873 21.552 48.3873 21.552C47.5793 21.552 46.9673 21.788 46.5513 22.26C46.1433 22.724 45.9393 23.392 45.9393 24.264C45.9393 25.136 46.1433 25.808 46.5513 26.28C46.9673 26.752 47.5793 26.988 48.3873 26.988C48.7873 26.988 49.1673 26.924 49.5273 26.796C49.8953 26.66 50.2593 26.452 50.6193 26.172L51.1953 27.648C50.8673 27.944 50.4473 28.184 49.9353 28.368C49.4233 28.544 48.8873 28.632 48.3273 28.632ZM53.1347 28.5V20.04H58.9307V21.492H54.9107V23.472H58.6667V24.936H54.9107V27.048H58.9307V28.5H53.1347ZM61.1203 28.5V20.04H64.9843C65.9283 20.04 66.6563 20.268 67.1683 20.724C67.6803 21.18 67.9363 21.816 67.9363 22.632C67.9363 23.264 67.7723 23.792 67.4443 24.216C67.1243 24.632 66.6643 24.916 66.0643 25.068C66.4883 25.196 66.8363 25.504 67.1083 25.992L68.4763 28.5H66.4243L64.9603 25.8C64.8403 25.584 64.6923 25.436 64.5163 25.356C64.3403 25.268 64.1323 25.224 63.8923 25.224H62.9803V28.5H61.1203ZM62.9803 23.88H64.6483C65.6483 23.88 66.1483 23.48 66.1483 22.68C66.1483 21.888 65.6483 21.492 64.6483 21.492H62.9803V23.88ZM69.0597 28.5L72.9477 20.04H74.4477L78.3357 28.5H76.4637L75.6717 26.664H71.7237L70.9437 28.5H69.0597ZM73.6797 22.02L72.3477 25.212H75.0597L73.7037 22.02H73.6797ZM79.8108 28.5V20.04H81.3588L84.2148 25.236L87.0588 20.04H88.5828V28.5H86.8908V23.34L84.7068 27.228H83.6628L81.4908 23.376V28.5H79.8108ZM91.0186 28.5V20.04H92.8786V28.5H91.0186ZM99.3933 28.632C98.4813 28.632 97.7013 28.452 97.0533 28.092C96.4053 27.732 95.9053 27.228 95.5533 26.58C95.2093 25.924 95.0373 25.152 95.0373 24.264C95.0373 23.384 95.2093 22.62 95.5533 21.972C95.9053 21.316 96.4053 20.808 97.0533 20.448C97.7013 20.088 98.4813 19.908 99.3933 19.908C99.9533 19.908 100.489 19.996 101.001 20.172C101.513 20.348 101.933 20.588 102.261 20.892L101.685 22.368C101.325 22.088 100.961 21.884 100.593 21.756C100.233 21.62 99.8533 21.552 99.4533 21.552C98.6453 21.552 98.0333 21.788 97.6173 22.26C97.2093 22.724 97.0053 23.392 97.0053 24.264C97.0053 25.136 97.2093 25.808 97.6173 26.28C98.0333 26.752 98.6453 26.988 99.4533 26.988C99.8533 26.988 100.233 26.924 100.593 26.796C100.961 26.66 101.325 26.452 101.685 26.172L102.261 27.648C101.933 27.944 101.513 28.184 101.001 28.368C100.489 28.544 99.9533 28.632 99.3933 28.632Z" fill="#2C2D2E"/>
</svg>
